<?xml version="1.0" standalone="no"?>
<!DOCTYPE svg PUBLIC "-//W3C//DTD SVG 20010904//EN"
 "http://www.w3.org/TR/2001/REC-SVG-20010904/DTD/svg10.dtd">
<svg version="1.0" xmlns="http://www.w3.org/2000/svg"
 width="500.000000pt" height="500.000000pt" viewBox="0 0 500.000000 500.000000"
 preserveAspectRatio="xMidYMid meet">

<g transform="translate(0.000000,500.000000) scale(0.100000,-0.100000)"
fill="#000000" stroke="none">
<path d="M1430 3580 c-25 -6 -69 -15 -97 -21 -61 -12 -69 -34 -30 -73 21 -21
33 -24 116 -24 50 0 94 4 97 9 3 5 13 5 24 -1 27 -15 72 -12 98 5 19 14 24 14
51 0 35 -17 61 -51 61 -78 0 -15 5 -13 25 11 13 16 38 35 55 42 l31 13 -37 38
c-59 61 -121 82 -244 85 -58 2 -125 -1 -150 -6z"/>
<path d="M1822 3405 c-12 -9 -29 -32 -37 -52 -14 -33 -13 -44 21 -176 78 -315
177 -643 216 -720 10 -21 35 -47 54 -59 l34 -20 -30 -28 c-101 -94 -73 -263
55 -334 29 -17 28 -17 -65 -11 -112 7 -334 39 -374 55 -16 6 -31 9 -33 6 -8
-7 216 -76 312 -96 159 -33 285 -44 495 -44 343 0 588 39 858 136 46 17 82 32
80 33 -2 2 -48 -7 -103 -21 -210 -51 -564 -84 -885 -83 l-145 0 48 25 c27 14
59 42 75 64 31 45 27 44 257 93 236 52 222 50 229 22 10 -39 63 -92 111 -110
125 -48 264 78 226 205 -25 83 -90 130 -179 130 -60 0 -117 -37 -147 -95 -20
-39 -22 -40 -115 -58 -52 -10 -143 -29 -203 -42 -59 -14 -113 -25 -120 -25 -7
0 -18 23 -25 52 -19 81 -72 128 -169 148 -37 8 -59 7 -95 -4 -27 -8 -46 -11
-43 -6 2 4 25 13 50 19 51 13 120 1 171 -28 27 -16 42 -18 110 -11 308 32 589
114 688 201 89 78 136 220 136 414 0 117 -23 272 -45 302 -13 17 -26 12 -212
-84 -394 -203 -656 -294 -916 -321 -79 -8 -79 -8 -89 17 -10 27 -109 404 -125
476 -10 46 -34 56 -71 30z m1402 -153 c15 -46 24 -267 15 -364 -16 -173 -73
-253 -241 -337 -46 -23 -74 -36 -64 -29 135 91 211 172 245 262 18 50 21 78
21 225 0 150 -2 171 -19 192 -17 21 -22 22 -57 11 -21 -6 -40 -10 -42 -8 -6 6
102 66 120 66 9 0 19 -8 22 -18z m-81 -134 l5 -57 -90 -46 c-49 -26 -91 -45
-92 -43 -10 11 -26 103 -19 105 4 2 49 25 98 52 50 27 91 48 92 47 1 0 4 -27
6 -58z m-226 -118 c7 -36 7 -53 -1 -58 -20 -13 -108 -52 -116 -52 -7 0 -24 70
-25 103 0 9 94 55 116 56 12 1 19 -13 26 -49z m233 -29 l0 -49 -72 -41 c-40
-22 -76 -37 -80 -33 -3 4 -9 23 -13 43 l-7 36 84 46 c45 25 84 46 86 46 1 1 2
-21 2 -48z m-405 -38 c3 -27 5 -52 4 -58 -2 -15 -119 -59 -129 -49 -4 5 -11
32 -14 59 l-7 50 53 22 c79 33 85 31 93 -24z m-181 -40 c3 -16 7 -43 8 -62 3
-34 3 -34 -66 -57 -38 -13 -70 -23 -72 -21 -1 1 -5 30 -9 63 l-7 62 44 15 c93
34 95 34 102 0z m384 -31 l10 -43 -59 -29 c-32 -17 -63 -30 -67 -30 -8 0 -35
82 -29 85 36 18 133 62 134 61 1 -1 6 -21 11 -44z m-564 -38 c12 -91 13 -89
-61 -111 -38 -12 -71 -18 -75 -14 -4 3 -8 35 -9 71 l-3 64 65 17 c35 9 67 18
70 18 4 1 9 -20 13 -45z m747 -11 c-10 -42 -18 -53 -56 -75 l-44 -27 -11 40
c-6 23 -9 44 -6 47 11 11 121 69 125 66 2 -1 -2 -25 -8 -51z m-361 -10 c0 -16
3 -37 6 -49 5 -17 -4 -24 -62 -47 -37 -15 -70 -25 -72 -22 -3 2 -8 23 -12 45
l-7 41 51 23 c96 43 96 43 96 9z m-575 -6 c4 -13 5 -45 3 -72 l-3 -49 -50 -12
c-27 -7 -50 -12 -50 -11 0 1 -11 31 -23 66 -12 35 -20 66 -17 69 5 5 102 30
122 31 7 1 15 -9 18 -22z m789 -73 c7 -30 5 -32 -59 -63 -36 -17 -68 -31 -70
-31 -5 0 -28 81 -23 84 2 1 32 16 68 33 69 33 73 32 84 -23z m-392 -21 l3 -42
-69 -26 c-38 -14 -70 -24 -72 -22 -2 2 -7 23 -10 48 l-6 44 69 26 c37 14 71
23 74 20 4 -3 9 -25 11 -48z m-192 -47 c0 -19 2 -41 5 -49 4 -10 -13 -19 -66
-35 -83 -25 -91 -21 -87 43 3 38 4 40 58 56 83 26 90 25 90 -15z m402 -7 c3
-19 4 -37 0 -41 -9 -8 -135 -59 -138 -55 -2 1 -6 21 -10 43 l-6 41 63 26 c35
14 68 25 74 23 5 -1 13 -18 17 -37z m258 26 c-7 -9 -15 -13 -19 -10 -3 3 1 10
9 15 21 14 24 12 10 -5z m-60 -28 c0 -8 -12 -20 -27 -26 -35 -16 -113 -40
-113 -35 0 3 128 72 138 74 1 0 2 -6 2 -13z m-790 -62 c0 -37 -4 -55 -12 -55
-7 0 -22 -3 -34 -6 -18 -5 -24 2 -38 35 -22 56 -21 58 22 69 62 17 62 17 62
-43z m400 21 c0 -7 3 -27 6 -43 6 -29 4 -31 -39 -42 -25 -6 -62 -11 -81 -11
-33 0 -36 2 -36 29 0 26 6 32 53 49 28 11 59 22 67 25 24 9 30 8 30 -7z m-190
-80 c0 -21 -5 -24 -56 -28 -31 -3 -68 -2 -83 0 -22 5 -15 9 44 28 90 29 95 29
95 0z m688 -160 c43 -22 61 -49 68 -97 5 -36 1 -50 -18 -78 -53 -79 -131 -90
-195 -26 -29 29 -33 39 -33 85 0 62 11 85 53 110 38 23 87 26 125 6z m-767
-54 c35 -37 39 -47 39 -93 0 -69 -23 -114 -75 -144 -55 -33 -109 -33 -158 0
-48 33 -67 72 -67 138 0 94 64 151 164 144 54 -3 62 -7 97 -45z"/>
<path d="M3010 2290 c-11 -11 -20 -30 -20 -42 1 -78 111 -86 118 -9 6 62 -55
94 -98 51z"/>
<path d="M2204 2270 c-26 -10 -54 -48 -54 -71 0 -32 39 -69 74 -69 49 0 76 24
76 69 0 55 -48 90 -96 71z"/>
<path d="M3454 2094 c-72 -50 -361 -139 -564 -174 -160 -27 -418 -50 -590 -51
-124 -1 -138 -3 -95 -11 77 -15 475 -15 585 0 292 41 551 128 661 222 36 31
38 39 3 14z"/>
<path d="M3578 1967 c-54 -28 -98 -58 -98 -65 0 -17 30 -62 41 -62 5 0 16 17
24 37 l16 38 49 -90 c27 -50 50 -102 50 -116 0 -39 8 -40 61 -13 50 25 63 48
32 58 -10 3 -38 45 -63 92 -60 115 -59 108 -11 100 35 -5 41 -4 41 12 0 19
-27 62 -38 62 -4 0 -51 -24 -104 -53z"/>
<path d="M1358 1964 c-4 -4 -3 -15 2 -24 8 -15 -4 -30 -70 -89 -45 -39 -90
-71 -100 -71 -34 0 -22 -29 20 -50 45 -23 64 -19 55 11 -11 34 4 40 48 18 52
-27 49 -23 41 -43 -3 -9 -12 -16 -20 -16 -31 0 -11 -31 36 -55 70 -36 82 -34
74 13 -3 20 -1 93 5 161 6 69 8 128 4 132 -12 10 -88 21 -95 13z m8 -149 c-6
-32 -9 -34 -29 -24 -33 18 -33 18 -2 44 17 13 32 22 34 20 2 -2 0 -20 -3 -40z"/>
<path d="M3362 1877 c-86 -27 -118 -106 -67 -161 23 -25 30 -27 93 -25 37 2
73 0 80 -4 18 -12 15 -41 -6 -60 -25 -22 -41 -21 -68 4 -31 29 -64 18 -64 -21
0 -54 62 -65 147 -26 66 31 90 71 73 122 -18 53 -48 68 -124 59 -58 -6 -66 -4
-75 14 -24 45 25 78 63 42 26 -25 49 -27 65 -7 23 27 -22 77 -66 75 -10 -1
-33 -6 -51 -12z"/>
<path d="M1586 1829 c-34 -27 -65 -87 -72 -141 -10 -79 45 -139 139 -155 56
-9 84 3 96 39 6 18 21 42 33 55 26 27 25 29 -40 53 -53 20 -68 15 -57 -18 3
-11 -1 -35 -10 -55 -16 -38 -31 -40 -67 -9 -35 30 -9 154 40 192 43 34 96 3
85 -50 -6 -34 28 -60 53 -39 17 14 18 62 3 91 -28 52 -155 75 -203 37z"/>
<path d="M3153 1797 c-45 -17 -49 -24 -26 -50 26 -29 73 -194 66 -229 -6 -33
-7 -33 63 -12 53 15 71 38 39 50 -21 8 -78 194 -69 228 5 23 3 26 -17 25 -13
0 -38 -6 -56 -12z"/>
<path d="M1855 1749 c8 -42 -29 -206 -52 -231 -10 -11 -13 -22 -7 -27 11 -11
101 -30 108 -23 3 3 3 21 1 41 -13 85 37 78 70 -10 17 -44 26 -55 52 -63 18
-5 39 -6 48 -2 15 5 15 8 1 33 -8 16 -22 45 -30 65 -14 35 -14 37 9 52 13 9
30 34 36 56 11 36 10 44 -8 68 -22 29 -96 56 -184 68 l-50 7 6 -34z m144 -48
c13 -13 18 -27 14 -43 -9 -37 -23 -48 -60 -48 -33 0 -35 2 -29 26 4 15 10 39
13 55 7 34 33 39 62 10z"/>
<path d="M2924 1741 c-44 -20 -54 -35 -54 -81 0 -51 36 -80 109 -88 71 -8 95
-27 75 -59 -18 -29 -63 -28 -91 1 -19 21 -28 24 -43 16 -28 -15 -25 -56 5 -76
20 -13 37 -15 77 -10 96 13 146 57 134 120 -9 49 -37 69 -104 74 -65 5 -82 15
-82 48 0 17 7 25 26 30 21 5 31 1 48 -21 27 -34 60 -31 64 6 2 15 -4 34 -13
43 -22 22 -99 20 -151 -3z"/>
<path d="M2150 1707 c0 -7 4 -17 9 -22 12 -12 -13 -213 -28 -228 -23 -23 -10
-36 44 -42 64 -8 72 -4 58 27 -13 29 8 204 28 236 12 20 12 24 -1 32 -23 15
-110 13 -110 -3z"/>
<path d="M2652 1705 c-86 -38 -54 -154 47 -170 56 -9 81 -23 81 -44 0 -45 -76
-56 -95 -13 -13 29 -61 31 -70 2 -16 -51 53 -87 138 -71 64 12 95 34 102 75
13 67 -38 116 -122 116 -40 0 -66 43 -41 68 22 22 56 14 70 -15 9 -20 21 -28
38 -28 21 0 26 5 28 32 2 23 -3 35 -20 47 -28 20 -111 20 -156 1z"/>
<path d="M2383 1690 c-26 -11 -29 -23 -9 -39 12 -10 8 -26 -25 -104 -22 -51
-49 -100 -60 -109 -29 -25 -15 -38 42 -38 51 0 63 13 32 35 -26 19 -5 35 48
35 41 0 49 -3 49 -18 0 -10 -5 -23 -11 -29 -21 -21 2 -33 67 -33 57 0 64 2 64
20 0 11 -4 20 -9 20 -5 0 -32 61 -61 135 -49 126 -55 135 -79 134 -14 0 -36
-4 -48 -9z m57 -176 c0 -2 -13 -4 -30 -4 -35 0 -35 1 -14 42 l16 32 14 -33 c8
-18 14 -35 14 -37z"/>
<path d="M1730 1220 l0 -50 33 1 c23 1 26 3 10 6 -27 5 -31 39 -5 46 16 4 16
5 0 6 -26 2 -22 29 5 34 16 3 13 5 -10 6 l-33 1 0 -50z"/>
<path d="M1858 1220 c-9 -27 -12 -50 -7 -50 5 0 9 5 9 10 0 15 48 12 53 -2 2
-7 7 -10 11 -7 10 9 -25 99 -38 99 -7 0 -19 -22 -28 -50z m42 -7 c0 -7 -7 -13
-16 -13 -11 0 -14 5 -10 16 3 9 6 21 6 27 0 16 20 -14 20 -30z"/>
<path d="M1990 1246 c0 -17 7 -26 25 -30 26 -7 32 -20 15 -31 -6 -4 -18 -1
-27 7 -14 11 -15 11 -11 -2 2 -8 16 -15 29 -15 35 0 38 38 4 53 -33 15 -33 36
1 28 17 -5 23 -3 19 4 -3 5 -17 10 -31 10 -19 0 -24 -5 -24 -24z"/>
<path d="M2116 1255 c4 -11 12 -34 18 -51 l12 -32 10 32 c6 17 14 40 18 51 7
17 5 17 -11 -3 l-19 -24 -18 24 c-14 19 -16 20 -10 3z"/>
<path d="M2314 1255 c-7 -18 3 -35 20 -35 21 0 40 -27 26 -35 -7 -4 -17 -2
-23 4 -17 17 -31 13 -17 -4 19 -23 54 -15 58 12 3 17 -3 24 -22 29 -14 3 -26
13 -26 21 0 11 7 13 26 9 17 -5 23 -3 19 4 -9 15 -55 12 -61 -5z"/>
<path d="M2452 1258 c-20 -20 -15 -66 9 -78 49 -27 96 20 69 69 -12 24 -58 29
-78 9z m66 -29 c6 -48 -49 -63 -63 -18 -9 26 13 51 39 47 14 -2 22 -12 24 -29z"/>
<path d="M2590 1220 c0 -48 1 -50 28 -49 16 1 20 3 10 6 -14 3 -18 15 -18 49
0 24 -4 44 -10 44 -5 0 -10 -22 -10 -50z"/>
<path d="M2704 1225 c1 -45 3 -50 25 -53 15 -3 30 3 38 14 15 21 18 84 3 84
-5 0 -10 -18 -10 -39 0 -43 -9 -55 -34 -45 -9 3 -17 22 -19 47 -4 36 -4 35 -3
-8z"/>
<path d="M2842 1263 c12 -3 18 -18 21 -51 l3 -47 2 47 c2 35 6 48 20 51 9 3
-1 5 -23 5 -22 0 -32 -2 -23 -5z"/>
<path d="M2963 1220 c0 -30 2 -43 4 -27 2 15 2 39 0 55 -2 15 -4 2 -4 -28z"/>
<path d="M3042 1258 c-20 -20 -15 -66 9 -78 49 -27 96 20 69 69 -12 24 -58 29
-78 9z m66 -29 c6 -48 -49 -63 -63 -18 -9 26 13 51 39 47 14 -2 22 -12 24 -29z"/>
<path d="M3180 1220 c0 -27 5 -50 10 -50 6 0 10 17 10 38 l0 37 20 -25 c26
-33 26 -16 -1 21 -29 41 -39 36 -39 -21z"/>
<path d="M3249 1235 c-1 -19 -2 -40 -3 -47 -1 -6 5 -13 12 -15 8 -3 12 10 12
46 0 57 -19 71 -21 16z"/>
</g>
</svg>
